# xmcd
#
# Track frame offsets: 
#        150
#        7379
#        21695
#        38040
#        51455
#        64805
#        82064
#        106260
#        125075
#        143617
#        153635
#        172539
#        192001
#        209597
#
# Disc length: 3133 seconds
#
# Revision: 0
# Processed by: cddbd v1.5.2PL0 Copyright (c) Steve Scherf et al.
# Submitted via: ExactAudioCopy v0.99pb4
#
DISCID=cb0c3b0e
DTITLE=Rob Murat - So Much To Say
DYEAR=2008
DGENRE=R&B
TTITLE0=Ladies and Gentlemen...
TTITLE1=Dilemma
TTITLE2=Ready To Love
TTITLE3=Mr. Soulman (Feat. Amanda Diva)
TTITLE4=Daytime High
TTITLE5=Celebrate
TTITLE6=Something Magical
TTITLE7=Until It's Over
TTITLE8=So Much To Say
TTITLE9=So Much More (Feat. J. Ivy)
TTITLE10=One Day (Feat. Blitz The Ambassador)
TTITLE11=Born Again
TTITLE12=Ricky??? (Bonus Track)
TTITLE13=Know (Live) (Bonus Track)
EXTD=
EXTT0=
EXTT1=
EXTT2=
EXTT3=
EXTT4=
EXTT5=
EXTT6=
EXTT7=
EXTT8=
EXTT9=
EXTT10=
EXTT11=
EXTT12=
EXTT13=
PLAYORDER=
